<svg width="144" height="29" viewBox="0 0 144 29" fill="none" xmlns="http://www.w3.org/2000/svg">
<path d="M17.04 14.02C16.47 16.09 14.94 17.35 11.43 17.35C7.83 17.35 5.34 15.52 5.34 11.35C5.34 7.18 7.83 5.32 11.43 5.32C14.82 5.32 16.38 6.4 17.04 8.68H21.78C21.48 4.18 17.28 0.669999 11.43 0.669999C5.4 0.669999 0.81 4.45 0.81 11.35C0.81 18.37 5.4 22 11.43 22C17.28 22 21.36 18.7 21.78 14.02H17.04ZM36.7334 7.66C35.5934 6.16 33.7034 5.17 30.5834 5.17C23.4734 5.17 22.7234 11.14 22.7234 13.6C22.7234 15.85 23.5034 22 30.5534 22C33.7334 22 35.6534 21.13 36.7934 19.66H36.9434V22H41.5034V5.17H36.9434V7.66H36.7334ZM31.9034 18.1C27.5534 18.1 27.0734 14.8 27.0734 13.6C27.0734 12.28 27.5234 9.1 31.9034 9.1C35.8334 9.1 36.6434 11.32 36.6434 13.6C36.6434 16.15 35.8334 18.1 31.9034 18.1ZM51.4102 11.8L51.0202 11.77C48.0802 11.32 47.5702 10.9 47.5702 10.15C47.5702 9.64 48.1102 8.71 50.6602 8.71C53.3002 8.71 54.4402 9.43 54.4402 10.75V10.9H59.0902V10.75C59.0902 8.17 57.6202 5.08 50.6602 5.08C44.1802 5.08 42.8302 7.87 42.8302 10.21C42.8302 13.57 45.8302 14.65 50.6602 15.28C50.9002 15.31 51.1402 15.34 51.3802 15.37C53.2102 15.58 54.8302 15.82 54.8302 17.08C54.8302 18.19 53.0902 18.43 51.2602 18.43C48.2302 18.43 47.1502 17.77 47.1502 16.33V16.18H42.4702V16.51C42.4402 17.38 42.4402 18.79 43.6102 19.96C44.9602 21.31 47.5702 22 51.3802 22C56.5402 22 59.5402 21.19 59.5402 17.02C59.5402 13.03 55.2202 12.37 51.4102 11.8ZM71.1677 5.17C68.1677 5.17 66.3377 6.16 65.2577 7.66H65.0477V0.339998H60.4877V22H65.0477V13.9C65.0477 11.62 65.9177 9.1 69.8477 9.1C74.2277 9.1 74.2277 12.28 74.2277 13.6V22H78.7577V13.6C78.7577 11.14 78.3077 5.17 71.1677 5.17ZM95.5596 1.03H87.9096L80.4096 22H85.1196L86.3796 18.55H97.0896L98.3196 22H103.06L95.5596 1.03ZM87.8496 14.38L91.1496 5.17H92.3196L95.5896 14.38H87.8496ZM115.12 5.2C112 5.2 110.08 6.19 108.94 7.66H108.7V5.2H104.14V28.42H108.7V19.69H108.91C110.05 21.16 111.97 22.06 115.12 22.06C122.2 22.06 122.98 15.88 122.98 13.63C122.98 11.17 122.23 5.2 115.12 5.2ZM113.8 18.13C109.84 18.13 109.03 16.18 109.03 13.63C109.03 11.35 109.84 9.13 113.8 9.13C118.15 9.13 118.63 12.31 118.63 13.63C118.63 14.83 118.15 18.13 113.8 18.13ZM135.599 5.2C132.479 5.2 130.559 6.19 129.419 7.66H129.179V5.2H124.619V28.42H129.179V19.69H129.389C130.529 21.16 132.449 22.06 135.599 22.06C142.679 22.06 143.459 15.88 143.459 13.63C143.459 11.17 142.709 5.2 135.599 5.2ZM134.279 18.13C130.319 18.13 129.509 16.18 129.509 13.63C129.509 11.35 130.319 9.13 134.279 9.13C138.629 9.13 139.109 12.31 139.109 13.63C139.109 14.83 138.629 18.13 134.279 18.13Z" fill="white"/>
</svg>
