<svg width="229" height="24" viewBox="0 0 229 24" fill="none" xmlns="http://www.w3.org/2000/svg">
<path d="M131.1 1H127.8C126.341 1 124.942 1.57946 123.911 2.61091C122.879 3.64236 122.3 5.04131 122.3 6.5V9.8H119V14.2H122.3V23H126.7V14.2H130L131.1 9.8H126.7V6.5C126.7 6.20826 126.816 5.92847 127.022 5.72218C127.228 5.51589 127.508 5.4 127.8 5.4H131.1V1Z" stroke="white" stroke-linecap="round" stroke-linejoin="round"/>
<path d="M171.5 1H160.5C157.462 1 155 3.46243 155 6.5V17.5C155 20.5376 157.462 23 160.5 23H171.5C174.538 23 177 20.5376 177 17.5V6.5C177 3.46243 174.538 1 171.5 1Z" stroke="white" stroke-linecap="round" stroke-linejoin="round"/>
<path d="M170.4 11.307C170.536 12.2224 170.379 13.1574 169.953 13.9789C169.527 14.8004 168.852 15.4665 168.026 15.8826C167.199 16.2987 166.262 16.4435 165.348 16.2965C164.435 16.1495 163.591 15.7181 162.936 15.0636C162.282 14.4092 161.85 13.5651 161.703 12.6514C161.556 11.7377 161.701 10.8008 162.117 9.97418C162.533 9.1475 163.199 8.47308 164.021 8.04683C164.842 7.62058 165.777 7.46421 166.693 7.59997C167.627 7.73844 168.491 8.17358 169.159 8.8411C169.826 9.50863 170.261 10.3732 170.4 11.307Z" stroke="white" stroke-linecap="round" stroke-linejoin="round"/>
<path d="M172.05 5.94995H172.061" stroke="white" stroke-linecap="round" stroke-linejoin="round"/>
<line x1="100" y1="13" x2="1" y2="13" stroke="#DCDCDC" stroke-width="2" stroke-linecap="round"/>
<path d="M227.973 1.01233C226.799 1.8405 225.499 2.47392 224.123 2.8882C223.385 2.03917 222.404 1.43739 221.312 1.16427C220.221 0.891146 219.071 0.959848 218.02 1.36109C216.969 1.76232 216.066 2.47673 215.434 3.4077C214.802 4.33866 214.472 5.44126 214.487 6.56637V7.79243C212.332 7.8483 210.197 7.37044 208.272 6.4014C206.347 5.43237 204.691 4.00224 203.452 2.23839C203.452 2.23839 198.548 13.2729 209.582 18.1771C207.057 19.8911 204.049 20.7506 201 20.6293C212.035 26.7596 225.521 20.6293 225.521 6.52959C225.52 6.18808 225.487 5.84741 225.423 5.51196C226.674 4.27793 227.557 2.71988 227.973 1.01233Z" stroke="white" stroke-linecap="round" stroke-linejoin="round"/>
</svg>
