<svg width="41" height="15" viewBox="0 0 41 15" fill="none" xmlns="http://www.w3.org/2000/svg">
<g id="Group 368">
<g id="Group 365">
<circle id="Ellipse 9" cx="33.5" cy="7.5" r="7.25" fill="white" stroke="black" stroke-width="0.5"/>
<path id="&#226;&#130;&#185;" d="M35.28 5.72H36.44V6.54H35.22C35.1467 6.98667 35.0067 7.34333 34.8 7.61C34.6 7.87 34.3133 8.06 33.94 8.18C33.5667 8.29333 33.0833 8.35 32.49 8.35V8.98C32.49 9.34667 32.5667 9.63667 32.72 9.85C32.88 10.0633 33.1467 10.17 33.52 10.17C34.2 10.17 34.54 9.78667 34.54 9.02H35.59C35.5833 9.69333 35.4 10.2033 35.04 10.55C34.6867 10.89 34.1733 11.06 33.5 11.06C32.8267 11.06 32.31 10.8733 31.95 10.5C31.5967 10.1267 31.42 9.60333 31.42 8.93V7.56C32.16 7.56 32.7033 7.54 33.05 7.5C33.3967 7.45333 33.6533 7.36 33.82 7.22C33.9933 7.08 34.1067 6.85333 34.16 6.54H31V5.72H34.21V4.83H31V4H36.44V4.83H35.28V5.72Z" fill="#2BC504"/>
</g>
<g id="Group 366">
<circle id="Ellipse 8" cx="20.5" cy="7.5" r="7.25" fill="white" stroke="black" stroke-width="0.5"/>
<path id="&#226;&#130;&#172;" d="M21.27 10.07C21.69 10.07 22.0567 9.98333 22.37 9.81C22.69 9.63 22.94 9.36667 23.12 9.02H24.49C24.23 9.68667 23.8133 10.2 23.24 10.56C22.6667 10.92 22.01 11.1 21.27 11.1C20.49 11.1 19.7967 10.89 19.19 10.47C18.5833 10.0433 18.16 9.47667 17.92 8.77H17V7.99H17.74C17.7267 7.80333 17.72 7.65667 17.72 7.55C17.72 7.44333 17.7267 7.29667 17.74 7.11H17V6.33H17.92C18.16 5.62333 18.5833 5.06 19.19 4.64C19.7967 4.21333 20.49 4 21.27 4C22.0033 4 22.6567 4.18333 23.23 4.55C23.81 4.91 24.23 5.42333 24.49 6.09H23.12C22.94 5.74333 22.69 5.48333 22.37 5.31C22.0567 5.13 21.69 5.04 21.27 5.04C20.7833 5.04 20.3533 5.15333 19.98 5.38C19.6133 5.60667 19.3333 5.92333 19.14 6.33H21.27V7.11H18.92C18.9 7.25 18.89 7.39667 18.89 7.55C18.89 7.70333 18.9 7.85 18.92 7.99H21.27V8.77H19.14C19.3333 9.18333 19.6133 9.50333 19.98 9.73C20.3533 9.95667 20.7833 10.07 21.27 10.07Z" fill="#270C72"/>
</g>
<g id="Group 367">
<circle id="Ellipse 7" cx="7.5" cy="7.5" r="7.25" fill="white" stroke="black" stroke-width="0.5"/>
<path id="$" d="M9.84 8.86C9.84 9.19333 9.75667 9.50667 9.59 9.8C9.43 10.0933 9.19 10.34 8.87 10.54C8.55667 10.74 8.18333 10.86 7.75 10.9V11.71H7.1V10.9C6.47333 10.84 5.96667 10.6433 5.58 10.31C5.19333 9.97667 5 9.53667 5 8.99H6.22C6.24 9.25 6.32333 9.46667 6.47 9.64C6.61667 9.80667 6.82667 9.91333 7.1 9.96V7.76C6.65333 7.64667 6.29 7.53333 6.01 7.42C5.73 7.3 5.49 7.11333 5.29 6.86C5.09667 6.60667 5 6.26 5 5.82C5 5.26667 5.19333 4.81 5.58 4.45C5.96667 4.08333 6.47333 3.87 7.1 3.81V3H7.75V3.81C8.33667 3.86333 8.80667 4.05 9.16 4.37C9.52 4.68333 9.72333 5.11667 9.77 5.67H8.55C8.53 5.46333 8.45 5.28 8.31 5.12C8.17 4.95333 7.98333 4.84 7.75 4.78V6.94C8.19667 7.04667 8.56 7.16 8.84 7.28C9.12 7.39333 9.35667 7.57667 9.55 7.83C9.74333 8.07667 9.84 8.42 9.84 8.86ZM6.16 5.76C6.16 6.03333 6.24 6.24667 6.4 6.4C6.56667 6.55333 6.8 6.67667 7.1 6.77V4.75C6.81333 4.78333 6.58333 4.88667 6.41 5.06C6.24333 5.23333 6.16 5.46667 6.16 5.76ZM7.75 9.96C8.04333 9.91333 8.27333 9.79667 8.44 9.61C8.60667 9.41667 8.69 9.18667 8.69 8.92C8.69 8.65333 8.60667 8.44667 8.44 8.3C8.28 8.14667 8.05 8.02333 7.75 7.93V9.96Z" fill="#EA6262"/>
</g>
</g>
</svg>
